<?xml version="1.0" encoding="UTF-8" standalone="no"?>
<!-- Generator: Adobe Illustrator 16.0.0, SVG Export Plug-In . SVG Version: 6.00 Build 0)  -->

<svg
   xmlns:dc="http://purl.org/dc/elements/1.1/"
   xmlns:cc="http://creativecommons.org/ns#"
   xmlns:rdf="http://www.w3.org/1999/02/22-rdf-syntax-ns#"
   xmlns:svg="http://www.w3.org/2000/svg"
   xmlns="http://www.w3.org/2000/svg"
   xmlns:sodipodi="http://sodipodi.sourceforge.net/DTD/sodipodi-0.dtd"
   xmlns:inkscape="http://www.inkscape.org/namespaces/inkscape"
   version="1.1"
   id="Camada_1"
   x="0px"
   y="0px"
   width="900px"
   height="540px"
   viewBox="0 0 900 540"
   enable-background="new 0 0 900 540"
   xml:space="preserve"
   inkscape:version="0.91 r13725"
   sodipodi:docname="thumbnail-default.svg"><metadata
   id="metadata3380"><rdf:RDF><cc:Work
       rdf:about=""><dc:format>image/svg+xml</dc:format><dc:type
         rdf:resource="http://purl.org/dc/dcmitype/StillImage" /></cc:Work></rdf:RDF></metadata><defs
   id="defs3378" /><sodipodi:namedview
   pagecolor="#ffffff"
   bordercolor="#666666"
   borderopacity="1"
   objecttolerance="10"
   gridtolerance="10"
   guidetolerance="10"
   inkscape:pageopacity="0"
   inkscape:pageshadow="2"
   inkscape:window-width="1366"
   inkscape:window-height="716"
   id="namedview3376"
   showgrid="false"
   inkscape:zoom="0.9462963"
   inkscape:cx="450"
   inkscape:cy="270"
   inkscape:window-x="-8"
   inkscape:window-y="-8"
   inkscape:window-maximized="1"
   inkscape:current-layer="Camada_1" />
<radialGradient
   id="SVGID_1_"
   cx="449.8335"
   cy="270.5"
   r="383.4488"
   gradientUnits="userSpaceOnUse">
	<stop
   offset="0"
   style="stop-color:#021E69"
   id="stop3338" />
	<stop
   offset="1"
   style="stop-color:#050D21"
   id="stop3340" />
</radialGradient>

<g
   id="g3344">
	<path
   fill="#FFFFFF"
   d="M705.101,336.93c0-6.13,1.394-11.009,4.181-14.631c2.786-3.623,6.083-6.594,9.895-8.919   c3.805-2.32,7.985-4.55,12.541-6.688c4.55-2.133,8.822-4.642,12.819-7.524c3.993-2.879,7.29-6.502,9.893-10.869   c2.602-4.362,3.903-10.077,3.903-17.139c0-9.476-2.974-16.905-8.918-22.297c-5.949-5.386-13.937-8.083-23.968-8.083   c-2.787,0-5.436,0.188-7.944,0.559c-2.507,0.375-7.014,1.581-13.516,3.623l-5.574-21.459c7.804-2.414,13.469-3.854,17.001-4.321   c3.527-0.461,7.524-0.695,11.983-0.695c7.987,0,15.372,1.21,22.155,3.622c6.781,2.418,12.682,5.761,17.698,10.033   c5.017,4.276,8.962,9.523,11.845,15.747c2.879,6.227,4.318,13.055,4.318,20.483c0,9.105-1.392,16.63-4.18,22.574   c-2.787,5.948-6.227,10.918-10.313,14.911c-4.087,3.997-8.594,7.341-13.516,10.032c-4.925,2.695-9.432,5.112-13.517,7.246   c-4.089,2.139-7.524,4.368-10.313,6.688c-2.786,2.325-4.18,5.436-4.18,9.337v32.886h-22.296V336.93z M699.528,406.325   c0-4.459,1.576-8.313,4.738-11.566c3.156-3.248,7.058-4.877,11.704-4.877c4.829,0,8.919,1.629,12.263,4.877   c3.344,3.253,5.017,7.107,5.017,11.566c0,4.646-1.673,8.549-5.017,11.706c-3.344,3.162-7.434,4.737-12.263,4.737   c-4.646,0-8.548-1.575-11.704-4.737C701.104,414.874,699.528,410.971,699.528,406.325z"
   id="path3346" />
</g>
<g
   id="g3348">
	<path
   fill="#FFFFFF"
   d="M817.999,187.038c0-4.669,1.062-8.383,3.183-11.141c2.123-2.76,4.633-5.021,7.535-6.791   c2.896-1.769,6.081-3.464,9.549-5.094c3.464-1.623,6.717-3.535,9.762-5.729c3.041-2.191,5.551-4.95,7.533-8.275   c1.98-3.323,2.971-7.674,2.971-13.052c0-7.215-2.264-12.871-6.79-16.977c-4.531-4.101-10.611-6.155-18.25-6.155   c-2.123,0-4.139,0.143-6.049,0.425c-1.909,0.287-5.341,1.205-10.292,2.759l-4.244-16.34c5.942-1.838,10.255-2.935,12.945-3.29   c2.686-0.351,5.729-0.529,9.124-0.529c6.082,0,11.705,0.921,16.871,2.758c5.163,1.841,9.656,4.387,13.476,7.641   c3.819,3.256,6.824,7.252,9.02,11.989c2.192,4.741,3.288,9.941,3.288,15.598c0,6.934-1.061,12.663-3.182,17.188   c-2.123,4.531-4.741,8.313-7.853,11.354c-3.113,3.043-6.545,5.59-10.292,7.639c-3.751,2.054-7.182,3.893-10.293,5.518   c-3.113,1.629-5.729,3.326-7.853,5.093c-2.121,1.771-3.183,4.139-3.183,7.11v25.041h-16.977V187.038z M813.755,239.88   c0-3.396,1.199-6.331,3.607-8.809c2.403-2.474,5.375-3.713,8.912-3.713c3.678,0,6.791,1.239,9.337,3.713   c2.546,2.478,3.819,5.413,3.819,8.809c0,3.535-1.273,6.509-3.819,8.911c-2.546,2.408-5.659,3.608-9.337,3.608   c-3.537,0-6.509-1.2-8.912-3.608C814.955,246.389,813.755,243.415,813.755,239.88z"
   id="path3350" />
</g>
<g
   id="g3352">
	<path
   fill="#F15A24"
   d="M671.753,131.73c0-3.064,0.697-5.502,2.089-7.312c1.393-1.812,3.04-3.295,4.944-4.457   c1.901-1.159,3.99-2.273,6.267-3.342c2.274-1.067,4.409-2.319,6.406-3.761c1.995-1.438,3.644-3.249,4.943-5.431   c1.3-2.181,1.95-5.036,1.95-8.565c0-4.734-1.486-8.446-4.457-11.141c-2.972-2.692-6.963-4.039-11.977-4.039   c-1.392,0-2.715,0.095-3.969,0.278c-1.253,0.188-3.506,0.789-6.754,1.812l-2.785-10.725c3.899-1.205,6.729-1.926,8.494-2.158   c1.764-0.229,3.762-0.348,5.989-0.348c3.991,0,7.681,0.604,11.071,1.81c3.389,1.208,6.336,2.879,8.844,5.014   c2.507,2.137,4.479,4.759,5.918,7.869s2.158,6.523,2.158,10.235c0,4.55-0.695,8.31-2.088,11.28   c-1.394,2.973-3.112,5.456-5.153,7.451c-2.043,1.998-4.296,3.668-6.754,5.014c-2.462,1.347-4.714,2.554-6.755,3.62   c-2.043,1.068-3.76,2.183-5.152,3.343c-1.393,1.161-2.089,2.716-2.089,4.665v16.434h-11.142V131.73z M668.968,166.406   c0-2.228,0.788-4.153,2.368-5.779c1.577-1.623,3.526-2.438,5.849-2.438c2.413,0,4.456,0.814,6.127,2.438   c1.672,1.626,2.508,3.552,2.508,5.779c0,2.322-0.836,4.272-2.508,5.85c-1.671,1.58-3.714,2.368-6.127,2.368   c-2.322,0-4.271-0.788-5.849-2.368C669.756,170.679,668.968,168.729,668.968,166.406z"
   id="path3354" />
</g>
<g
   id="g3356">
	<path
   fill="#F15A24"
   d="M131.042,344.618c0-6.13,1.395-11.009,4.181-14.631c2.787-3.623,6.084-6.594,9.895-8.919   c3.806-2.32,7.986-4.55,12.542-6.688c4.549-2.133,8.821-4.642,12.818-7.524c3.994-2.879,7.291-6.502,9.894-10.869   c2.601-4.362,3.902-10.077,3.902-17.139c0-9.476-2.974-16.905-8.918-22.297c-5.949-5.386-13.936-8.083-23.968-8.083   c-2.786,0-5.436,0.188-7.943,0.559c-2.508,0.375-7.014,1.581-13.516,3.623l-5.574-21.459c7.804-2.414,13.468-3.854,17-4.321   c3.527-0.461,7.524-0.695,11.984-0.695c7.986,0,15.372,1.21,22.155,3.622c6.78,2.418,12.681,5.761,17.697,10.033   c5.017,4.276,8.963,9.523,11.846,15.747c2.878,6.227,4.318,13.055,4.318,20.483c0,9.105-1.393,16.63-4.18,22.574   c-2.788,5.948-6.228,10.918-10.313,14.911c-4.088,3.997-8.595,7.341-13.516,10.032c-4.926,2.695-9.433,5.112-13.517,7.246   c-4.09,2.139-7.525,4.368-10.313,6.688c-2.787,2.325-4.18,5.436-4.18,9.337v32.886h-22.297V344.618z M125.469,414.014   c0-4.459,1.575-8.313,4.738-11.566c3.155-3.248,7.057-4.877,11.704-4.877c4.828,0,8.918,1.629,12.262,4.877   c3.345,3.253,5.017,7.107,5.017,11.566c0,4.646-1.672,8.549-5.017,11.706c-3.344,3.162-7.434,4.737-12.262,4.737   c-4.647,0-8.549-1.575-11.704-4.737C127.044,422.563,125.469,418.659,125.469,414.014z"
   id="path3358" />
</g>
<g
   id="g3360">
	<path
   fill="#FFFFFF"
   d="M34.825,230.899c0-4.669,1.062-8.383,3.183-11.141c2.124-2.76,4.633-5.021,7.535-6.791   c2.896-1.769,6.082-3.464,9.549-5.094c3.464-1.623,6.717-3.535,9.762-5.729c3.042-2.191,5.551-4.95,7.533-8.275   c1.98-3.323,2.972-7.674,2.972-13.052c0-7.215-2.264-12.871-6.791-16.977c-4.53-4.101-10.611-6.155-18.25-6.155   c-2.123,0-4.139,0.143-6.048,0.425c-1.91,0.287-5.342,1.205-10.292,2.759l-4.245-16.34c5.943-1.838,10.255-2.935,12.945-3.29   c2.686-0.351,5.73-0.529,9.125-0.529c6.082,0,11.704,0.921,16.871,2.758c5.163,1.841,9.656,4.387,13.476,7.641   c3.819,3.256,6.823,7.252,9.019,11.989c2.193,4.741,3.288,9.941,3.288,15.598c0,6.934-1.061,12.663-3.182,17.188   c-2.123,4.531-4.741,8.313-7.853,11.354c-3.112,3.043-6.545,5.59-10.291,7.639c-3.751,2.054-7.183,3.893-10.293,5.518   c-3.113,1.629-5.729,3.326-7.853,5.093c-2.121,1.771-3.183,4.139-3.183,7.11v25.041H34.825V230.899z M30.583,283.741   c0-3.396,1.199-6.331,3.606-8.809c2.404-2.474,5.375-3.713,8.912-3.713c3.678,0,6.791,1.239,9.337,3.713   c2.547,2.478,3.819,5.413,3.819,8.809c0,3.535-1.272,6.509-3.819,8.911c-2.546,2.408-5.659,3.608-9.337,3.608   c-3.537,0-6.508-1.2-8.912-3.608C31.782,290.25,30.583,287.276,30.583,283.741z"
   id="path3362" />
</g>
<g
   id="g3364">
	<path
   fill="#FFFFFF"
   d="M177.709,118.498c0-3.064,0.697-5.502,2.089-7.312c1.393-1.812,3.041-3.295,4.944-4.457   c1.901-1.159,3.991-2.273,6.267-3.342c2.275-1.067,4.409-2.319,6.406-3.761c1.996-1.438,3.644-3.249,4.944-5.431   c1.299-2.181,1.95-5.036,1.95-8.565c0-4.734-1.487-8.446-4.457-11.141c-2.973-2.692-6.963-4.039-11.977-4.039   c-1.393,0-2.716,0.095-3.97,0.278c-1.253,0.188-3.505,0.789-6.753,1.812l-2.786-10.725c3.899-1.205,6.729-1.926,8.495-2.158   c1.763-0.229,3.761-0.348,5.988-0.348c3.992,0,7.682,0.604,11.071,1.81c3.389,1.208,6.336,2.879,8.844,5.014   c2.507,2.137,4.479,4.759,5.919,7.869c1.438,3.11,2.158,6.523,2.158,10.235c0,4.55-0.696,8.31-2.088,11.28   c-1.394,2.973-3.112,5.456-5.153,7.451c-2.043,1.998-4.296,3.668-6.754,5.014c-2.463,1.347-4.714,2.554-6.755,3.62   c-2.043,1.068-3.76,2.183-5.153,3.343c-1.392,1.161-2.089,2.716-2.089,4.665v16.434h-11.142V118.498z M174.925,153.174   c0-2.228,0.787-4.153,2.367-5.779c1.577-1.623,3.527-2.438,5.85-2.438c2.412,0,4.456,0.814,6.127,2.438   c1.671,1.626,2.507,3.552,2.507,5.779c0,2.322-0.836,4.272-2.507,5.85c-1.671,1.58-3.715,2.368-6.127,2.368   c-2.322,0-4.272-0.788-5.85-2.368C175.712,157.446,174.925,155.496,174.925,153.174z"
   id="path3366" />
</g>
<path
   fill="#F15A24"
   d="M477.541,404.693c-9.594,1.397-14.176,17.807-14.176,17.807h-35.066c0,0-4.579-16.409-14.173-17.807  c-2.968,0.35-9.292,6.79-9.292,6.79v76.751c0,0,7.242,3.266,11.432,9.266c6.626,0,21.104,0,21.104,0h16.921c0,0,14.479,0,21.105,0  c4.188-6,11.438-9.266,11.438-9.266v-76.751C486.833,411.483,480.505,405.043,477.541,404.693z"
   id="path3368" />
<path
   fill="#FFFFFF"
   d="M637.474,319.724c-1.57-3.137-6.198-13.079-8.816-16.046c-2.613-2.963-12.824-14.476-12.824-14.476v-59.66  l13.426-13.257c0,0-2.883-31.748-11.602-51.632c-8.722-19.89-38.511-74.139-47.756-80.246c-10.171-6.71-50.238-18.404-55.103-19.707  c-18.143-4.886-9.922,6.8-23.701,6.8c-15.877,0-28.783,0-28.783,0h-32.972c0,0-12.906,0-28.781,0c-13.778,0-5.579-11.686-23.722-6.8  c-4.864,1.303-44.952,13.171-55.122,19.882c-9.247,6.106-39.077,60.269-47.797,80.158c-8.721,19.883-11.516,51.588-11.516,51.588  l13.428,13.214v59.66c0,0-10.289,11.513-12.902,14.476c-2.621,2.967-7.088,12.909-8.654,16.046  c-1.571,3.144-11.443,7.679-11.443,7.679v47.448c0,0,8.544,8.545,13.257,10.813c2.32,1.119,16.743,20.759,16.743,20.759v6.455  c0,0,27.618,30.699,34.07,31.223c71.52,10.643,49.93,31.224,86.93,38.898v-19.36c0-14.825-6-8.723-6-21.631  c0-12.909,0-34.189,0-34.189l6.363-1.57l12.343-11.861l-11.971-24.363l23.439-20.523h55.645l23.376,20.523l-12.037,24.394  l12.477,11.846l6.365,1.556c0,0,0,21.28,0,34.189c0,12.908-8,6.806-8,21.631v19.36c38-7.675,15.906-28.256,87.43-38.898  c6.452-0.523,34.57-31.223,34.57-31.223v-6.455c0,0,14.922-19.64,17.244-20.759c4.707-2.269,13.756-10.813,13.756-10.813v-47.448  C648.833,327.402,639.044,322.867,637.474,319.724z M259.966,374.327c-4.529,0-8.201-3.674-8.201-8.2s3.672-8.196,8.201-8.196  c4.528,0,8.199,3.67,8.199,8.196S264.495,374.327,259.966,374.327z M259.966,348.511c-4.529,0-8.201-3.674-8.201-8.2  c0-4.527,3.672-8.197,8.201-8.197c4.528,0,8.199,3.67,8.199,8.197C268.166,344.837,264.495,348.511,259.966,348.511z M397.833,103.5  h96v66h-96V103.5z M397.833,186.5h96v17.579L482.548,217.5h-73.236l-11.479-13.421V186.5z M370.531,435.962  c-22.966,3.778-13.666-8.143-49.134-9.013c-5.229-5.815-31.398-25.004-36.921-37.505c-10.468-18.897,9.303-17.444,30.522-19.769  c15.703,7.85,45.938,34.599,55.823,43.317C374.602,419.971,373.44,430.438,370.531,435.962z M508.185,358.436  c-6.033-2.832-30.234-26.936-30.234-26.936h-64.247c0,0-24.201,24.104-30.234,26.936c-11.395,5.348-38.375-5.485-43.727-8.508  c-5.351-3.027-28.828-32.549-30.933-38.449c-4.653-13.024-3.721-54.686-3.257-57.716c8.14-7.673,13.257-8.157,16.05-9.549  c2.79-1.398,12.555-11.172,12.555-11.172l50.708-9.75c0,0,9.768,14.208,18.608,14.208c8.834,0,32.56,0,32.56,0h19.587  c0,0,23.722,0,32.563,0c8.838,0,18.607-14.213,18.607-14.213l50.702,9.874c0,0,9.771,9.7,12.559,11.099  c2.791,1.392,7.908,1.828,16.05,9.501c0.465,3.029,1.393,44.652-3.257,57.678c-2.103,5.898-25.586,35.396-30.935,38.423  C546.564,352.884,519.582,363.783,508.185,358.436z M607.137,389.444c-5.526,12.501-31.691,31.689-36.928,37.505  c-35.465,0.87-26.163,12.791-49.133,9.013c-2.907-5.524-4.067-15.991-0.289-22.969c9.883-8.719,40.12-35.468,55.818-43.317  C597.833,372,617.599,370.547,607.137,389.444z M631.669,374.327c-4.525,0-8.199-3.674-8.199-8.2s3.674-8.196,8.199-8.196  c4.53,0,8.199,3.67,8.199,8.196S636.2,374.327,631.669,374.327z M631.669,348.511c-4.525,0-8.199-3.674-8.199-8.2  c0-4.527,3.674-8.197,8.199-8.197c4.53,0,8.199,3.67,8.199,8.197C639.869,344.837,636.2,348.511,631.669,348.511z"
   id="path3370" />
<path
   fill="#F15A24"
   d="M426.033,393.5c3.838,0,9.072,0,9.072,0h21.452c0,0,5.23,0,9.072,0c3.836,0,16.05-26.564,16.05-26.564  L469.642,354.5h-47.621l-12.038,12.436C409.983,366.936,422.197,393.5,426.033,393.5z"
   id="path3372" />
<path
   fill="#F15A24"
   d="M571.159,260.65c-7.163-6.225-10.286-1.107-16.565-8.785c-2.745-3.352-8.612-7.136-8.612-7.136  l-36.526-7.065c0,0-11.02,11.836-20.196,11.836h-32.968c-0.544,0-0.844,0-0.844,0H436.2c0,0-24.636,0-33.813,0  s-20.191-11.836-20.191-11.836l-36.53,7.064c0,0-5.869,3.784-8.614,7.136c-6.28,7.678-9.399,2.562-16.565,8.786  c-0.404,2.449,0.928,35.287,5.311,45.733c4.645,11.064,22.514,28.671,27.222,31.127c4.707,2.451,26.533,8.216,29.151,5.775  c2.614-2.441,26.843-23.786,26.843-23.786h73.622c0,0,24.229,21.345,26.845,23.786c2.616,2.44,24.44-3.134,29.15-5.585  c4.709-2.455,22.58-20.158,27.221-31.224C570.236,296.032,571.565,263.1,571.159,260.65z"
   id="path3374" />
</svg>